<?xml version="1.0" encoding="UTF-8"?>
<svg width="25px" height="15px" viewBox="0 0 25 15" version="1.1" xmlns="http://www.w3.org/2000/svg" xmlns:xlink="http://www.w3.org/1999/xlink">
    <!-- Generator: Sketch 51.2 (57519) - http://www.bohemiancoding.com/sketch -->
    <title>ratingNgLogo</title>
    <desc>Created with Sketch.</desc>
    <defs>
        <polygon id="path-1" points="0.0960689655 0.0676826211 2.20622577 0.0676826211 2.20622577 10.6317232 0.0960689655 10.6317232"></polygon>
        <polygon id="path-3" points="0 14.9333333 19.5525549 14.9333333 19.5525549 0.0676826211 0 0.0676826211"></polygon>
        <polygon id="path-5" points="0 14.9333333 19.5525549 14.9333333 19.5525549 0.0676826211 0 0.0676826211"></polygon>
        <polygon id="path-7" points="0 14.9333333 19.5525549 14.9333333 19.5525549 0.0676826211 0 0.0676826211"></polygon>
        <polygon id="path-9" points="0 14.9333333 19.5525549 14.9333333 19.5525549 0.0676826211 0 0.0676826211"></polygon>
        <polygon id="path-11" points="0 14.9333333 19.5525549 14.9333333 19.5525549 0.0676826211 0 0.0676826211"></polygon>
    </defs>
    <g id="Page-1" stroke="none" stroke-width="1" fill="none" fill-rule="evenodd">
        <g id="ratingNgLogo">
            <polygon id="Fill-1" fill="#EA4335" fill-rule="nonzero" points="10 3 10.3088738 3.65829221 11 3.76476746 10.5 4.27680574 10.6180319 5 10 4.65814267 9.38196814 5 9.5 4.27680574 9 3.76476746 9.69084187 3.65829221"></polygon>
            <g id="Group-11">
                <g id="Group-15">
                    <path d="M0.492254612,7.13496997 L0.495960976,10.6317232 L4.94181921e-05,10.6317232 L4.94181921e-05,4.53349076 L0.492254612,4.53349076 L0.492254612,5.51426854 C0.516469526,5.47248392 0.541672804,5.4310862 0.568358628,5.3893016 C0.930099794,4.82250102 1.36819207,4.53929418 1.88214127,4.53929418 L1.95453892,4.53929418 L1.95453892,5.25891812 C1.930324,5.25543608 1.90635618,5.2535016 1.88214127,5.2535016 C1.498409,5.2535016 1.16903675,5.46668052 0.894024514,5.89381214 C0.667195012,6.24898137 0.533271711,6.66257167 0.492254612,7.13496997" id="Fill-2" fill="#000000" fill-rule="nonzero"></path>
                    <path d="M5.67175062,8.11543824 L5.67175062,6.98764052 C5.60898951,6.57598468 5.47506622,6.2092086 5.26998071,5.8880861 C4.9779192,5.42729465 4.62334367,5.19670547 4.20575995,5.19670547 C3.79311804,5.19670547 3.43977797,5.42652085 3.14524554,5.88537784 C2.85096021,6.3446217 2.703694,6.89865476 2.703694,7.54863766 C2.703694,8.19862056 2.85096021,8.75304052 3.14524554,9.21228439 C3.43977797,9.67114137 3.79311804,9.90056986 4.20575995,9.90056986 C4.62334367,9.90056986 4.9779192,9.67191515 5.26998071,9.21499266 C5.47506622,8.89387014 5.60898951,8.52709407 5.67175062,8.11543824 Z M5.67175063,5.49151915 L5.67175063,4.55639494 L6.16395582,4.55639494 L6.16395582,10.6318006 L5.67175063,10.6318006 L5.67175063,9.60614307 L5.59935297,9.73072313 C5.21339689,10.3315704 4.74886588,10.6318006 4.20575995,10.6318006 C3.66290111,10.6318006 3.19911137,10.3307966 2.81439075,9.72801488 C2.42942303,9.1252331 2.23693917,8.39864506 2.23693917,7.54863766 C2.23693917,6.69863026 2.42942303,5.97242912 2.81439075,5.36964734 C3.19911137,4.76725248 3.66290111,4.4654747 4.20575995,4.4654747 C4.74886588,4.4654747 5.21339689,4.76609179 5.59935297,5.36693909 L5.67175063,5.49151915 Z" id="Fill-4" fill="#000000" fill-rule="nonzero"></path>
                    <g id="Group-8" transform="translate(6.918547, 0.000000)">
                        <g id="Fill-6-Clipped">
                            <mask id="mask-2" fill="white">
                                <use xlink:href="#path-1"></use>
                            </mask>
                            <g id="path-1"></g>
                            <path d="M1.07331372,9.65133237 C1.17709192,9.77978137 1.29174212,9.84400587 1.41726433,9.84400587 C1.43876125,9.84400587 1.46174071,9.8420714 1.48595562,9.83820245 C1.61617256,9.81576257 1.72612803,9.7345147 1.81532787,9.59484576 L2.20622577,10.0707261 C2.1288863,10.2405728 2.016707,10.3786942 1.86968788,10.4843164 C1.76838059,10.5562788 1.65842511,10.6015455 1.54031563,10.6205033 C1.49435671,10.6278543 1.44963325,10.6317232 1.40639233,10.6317232 C1.16745537,10.6317232 0.951497871,10.5110121 0.758519831,10.269203 C0.52921942,9.98174035 0.412098304,9.55693009 0.407403576,8.99399846 L0.407403576,7.2255033 L0.0960689655,7.2255033 L0.0960689655,6.46061271 L0.407403576,6.46061271 L0.407403576,0.0675665527 L0.906774408,0.0675665527 L0.906774408,6.46061271 L1.55835327,6.46061271 L1.55835327,7.2255033 L0.906774408,7.2255033 L0.906774408,8.95414833 C0.906774408,9.26791983 0.962369874,9.50005658 1.07331372,9.65133237" id="Fill-6" fill="#000000" fill-rule="nonzero" mask="url(#mask-2)"></path>
                        </g>
                    </g>
                    <g id="Fill-9-Clipped">
                        <mask id="mask-4" fill="white">
                            <use xlink:href="#path-3"></use>
                        </mask>
                        <g id="path-3"></g>
                        <polygon id="Fill-9" fill="#000000" fill-rule="nonzero" mask="url(#mask-4)" points="9.67138729 10.6318393 10.1635924 10.6318393 10.1635924 6.46072877 9.67138729 6.46072877"></polygon>
                    </g>
                    <g id="Fill-11-Clipped">
                        <mask id="mask-6" fill="white">
                            <use xlink:href="#path-5"></use>
                        </mask>
                        <g id="path-3"></g>
                        <path d="M11.6185876,5.50277778 C12.0458079,4.81139716 12.5306004,4.46551339 13.0737063,4.46551339 C13.2931231,4.46551339 13.5006795,4.514649 13.6961284,4.61292023 C13.9760825,4.76032707 14.2305862,5.00987407 14.4598866,5.36117436 C14.6602773,5.67455898 14.806061,6.02237722 14.8977318,6.40385527 C14.980013,6.70988889 15.0210301,7.06312365 15.0210301,7.46355954 L15.0210301,10.6318393 L14.5285779,10.6318393 L14.5285779,7.35600284 C14.4925026,6.81202906 14.3477073,6.34156524 14.094439,5.9449983 C13.8120141,5.50664672 13.4717698,5.28727749 13.0737063,5.28727749 C12.6778666,5.28727749 12.3400932,5.50664672 12.0601392,5.9449983 C11.7851269,6.37561196 11.6390962,6.88747351 11.622294,7.4805829 L11.622294,10.6318393 L11.1263824,10.6318393 L11.1263824,4.53360684 L11.6185876,4.53360684 L11.6185876,5.50277778 Z" id="Fill-11" fill="#000000" fill-rule="nonzero" mask="url(#mask-6)"></path>
                    </g>
                    <g id="Fill-12-Clipped">
                        <mask id="mask-8" fill="white">
                            <use xlink:href="#path-7"></use>
                        </mask>
                        <g id="path-3"></g>
                        <path d="M17.6703889,5.36674564 C17.2866565,5.36674564 16.9580256,5.58224593 16.6842488,6.0128596 C16.410225,6.44347328 16.2733366,6.95920377 16.2733366,7.56005105 C16.2733366,8.16089834 16.410225,8.67585504 16.6842488,9.10453424 C16.9580256,9.53360035 17.2866565,9.74755304 17.6703889,9.74755304 C18.0588159,9.74755304 18.3901648,9.53360035 18.6639416,9.10453424 C18.9379655,8.67585504 19.0748539,8.16089834 19.0748539,7.56005105 C19.0748539,6.95920377 18.9379655,6.44347328 18.6639416,6.0128596 C18.3901648,5.58224593 18.0588159,5.36674564 17.6703889,5.36674564 Z M17.0477196,11.0626077 L17.312107,10.4164938 C16.9572843,10.3182226 16.641255,10.0497177 16.3637719,9.61175304 C15.9993126,9.04495248 15.8172067,8.36092284 15.8172067,7.56005105 C15.8172067,6.75531032 15.9988185,6.06857242 16.3620422,5.50022427 C16.7252659,4.93148924 17.1611343,4.6471217 17.6703889,4.6471217 C18.186809,4.6471217 18.6246542,4.93226302 18.9841714,5.50293254 C19.018023,5.55206815 19.0456971,5.59926929 19.0674412,5.64453596 L19.2087772,5.34972228 L19.5524807,5.85964935 L19.3535725,6.30767328 C19.4692111,6.6852824 19.5272774,7.10274166 19.5272774,7.56005105 C19.5272774,8.36092284 19.3461598,9.04495248 18.9841714,9.61175304 C18.6656713,10.1104602 18.2918226,10.3897981 17.8621314,10.4505405 L17.7573649,10.705504 L17.7934402,10.705504 C17.9454011,10.705504 18.099833,10.7488362 18.2567357,10.8358875 C18.6066165,11.028561 18.8623557,11.3875992 19.0242002,11.9126152 C19.1134001,12.2109109 19.1581235,12.511528 19.1581235,12.8136927 C19.1581235,13.0481508 19.1302023,13.2860909 19.0748539,13.5279001 C18.9518026,14.0757428 18.7212667,14.4742442 18.3834934,14.7237912 C18.1927392,14.8634602 17.9997611,14.9334881 17.8043122,14.9334881 C17.6548221,14.9334881 17.5038496,14.8917035 17.3518886,14.8085211 C17.1853493,14.7141189 17.0175745,14.5516231 16.8488114,14.3214209 L17.2505813,13.9585137 C17.3373102,14.052916 17.4193444,14.1229439 17.4966839,14.1682106 C17.5955202,14.2250841 17.6958392,14.2533274 17.7971465,14.2533274 C17.9273635,14.2533274 18.0575803,14.2041918 18.1880444,14.1059206 C18.4170977,13.935687 18.572765,13.6656345 18.6547992,13.2953764 C18.6935925,13.1290117 18.7128656,12.9649684 18.7128656,12.8024727 C18.7128656,12.5981924 18.6827205,12.3981679 18.6224303,12.2016254 C18.5137103,11.8464562 18.3437117,11.6046471 18.1119404,11.4761981 C18.0081622,11.4197115 17.9056195,11.3910813 17.8043122,11.3910813 C17.6716243,11.3910813 17.5414074,11.4382824 17.4134143,11.5330716 L17.0477196,11.0626077 Z" id="Fill-12" fill="#EA4335" fill-rule="nonzero" mask="url(#mask-8)"></path>
                    </g>
                    <g id="Fill-13-Clipped">
                        <mask id="mask-10" fill="white">
                            <use xlink:href="#path-9"></use>
                        </mask>
                        <g id="path-3"></g>
                        <path d="M17.0478185,11.0624917 L17.413266,11.5329555 C17.4898642,11.476082 17.5676979,11.4420353 17.6457786,11.4195954 L17.6457786,9.74434182 C17.2729183,9.73466945 16.9519472,9.5238119 16.6841006,9.10441818 C16.4103238,8.67573898 16.2731883,8.16078228 16.2731883,7.55993499 C16.2731883,6.95947459 16.4103238,6.4437441 16.6841006,6.01274354 C16.9519472,5.59141532 17.2729183,5.37978398 17.6457786,5.37011163 L17.6457786,4.64894012 C17.1473961,4.65783869 16.7191875,4.94104553 16.362141,5.50010821 C15.9989173,6.06884325 15.8173055,6.75519424 15.8173055,7.55993499 C15.8173055,8.36119368 15.9994115,9.04483641 16.3636236,9.61163698 C16.6411068,10.0499885 16.9573832,10.3181065 17.3119587,10.4163777 L17.0478185,11.0624917 Z" id="Fill-13" fill="#000000" fill-rule="nonzero" mask="url(#mask-10)"></path>
                    </g>
                    <g id="Fill-14-Clipped">
                        <mask id="mask-12" fill="white">
                            <use xlink:href="#path-11"></use>
                        </mask>
                        <g id="path-3"></g>
                        <path d="M17.6457786,14.2320869 C17.5958662,14.2177718 17.5462009,14.1964926 17.4965357,14.1682493 C17.4194433,14.1229826 17.3374091,14.0529547 17.2504331,13.9585524 L16.8486632,14.3210727 C17.0176734,14.5516618 17.1854481,14.7141575 17.3519874,14.8085598 C17.4503296,14.8627251 17.5481776,14.892516 17.6457786,14.9114738 L17.6457786,14.2320869 Z" id="Fill-14" fill="#000000" fill-rule="nonzero" mask="url(#mask-12)"></path>
                    </g>
                </g>
                <path d="M20.863947,4.16044219 C21.0398613,3.87575606 21.2394817,3.73333333 21.4631135,3.73333333 C21.5534616,3.73333333 21.6389261,3.75356565 21.719405,3.79403027 C21.8346802,3.85472719 21.9394758,3.95748186 22.0338936,4.10213491 C22.1164075,4.23117564 22.1764361,4.3743949 22.2141828,4.53147411 C22.2480633,4.65748796 22.2649527,4.80293755 22.2649527,4.96782292 L22.2649527,6.27240872 L22.0621783,6.27240872 L22.0621783,4.92353487 C22.0473238,4.69954567 21.9877022,4.50582527 21.8834153,4.342533 C21.7671226,4.1620353 21.6270221,4.07170678 21.4631135,4.07170678 C21.3001207,4.07170678 21.1610375,4.1620353 21.0457623,4.342533 C20.9325221,4.51984451 20.8723917,4.73061103 20.8654732,4.97483255 L20.8654732,6.27240872 L20.6612743,6.27240872 L20.6612743,3.76137182 L20.863947,3.76137182 L20.863947,4.16044219 Z" id="Fill-11" stroke="#417505" stroke-width="0.5" fill="#417505" fill-rule="nonzero"></path>
                <g id="Group-5" transform="translate(22.548602, 3.733333)" fill="#417505" fill-rule="nonzero" stroke="#417505" stroke-width="0.5">
                    <path d="M0.788513987,0.304710322 C0.625239025,0.304710322 0.485409211,0.395959597 0.368919411,0.578294321 C0.252324475,0.760629046 0.194079576,0.979004777 0.194079576,1.23342151 C0.194079576,1.48783825 0.252324475,1.70588634 0.368919411,1.88740194 C0.485409211,2.06908137 0.625239025,2.15967536 0.788513987,2.15967536 C0.953786519,2.15967536 1.09477282,2.06908137 1.21126262,1.88740194 C1.32785755,1.70588634 1.38610245,1.48783825 1.38610245,1.23342151 C1.38610245,0.979004777 1.32785755,0.760629046 1.21126262,0.578294321 C1.09477282,0.395959597 0.953786519,0.304710322 0.788513987,0.304710322 Z M0.523573287,2.7165089 L0.63606795,2.4429249 C0.485093805,2.40131393 0.350625887,2.28762094 0.232559059,2.10217358 C0.0774846412,1.86217324 0,1.57253462 0,1.23342151 C0,0.892670186 0.0772743707,0.601884797 0.231823112,0.361229173 C0.386371854,0.120409724 0.571830344,0 0.788513987,0 C1.00824655,0 1.19454613,0.12073737 1.34751784,0.362375932 C1.36192136,0.383181422 1.3736965,0.403167797 1.3829484,0.42233506 L1.44308573,0.29750212 L1.58932879,0.51342051 L1.50469496,0.703127259 C1.55389823,0.863018266 1.578605,1.03978302 1.578605,1.23342151 C1.578605,1.57253462 1.50154091,1.86217324 1.34751784,2.10217358 C1.21199857,2.3133411 1.05292901,2.43162114 0.870098901,2.4573413 L0.825521577,2.5653005 L0.840871316,2.5653005 C0.905529462,2.5653005 0.971238962,2.58364865 1.03799981,2.62050877 C1.18687126,2.70209251 1.29568618,2.85412002 1.36454974,3.0764275 C1.40250354,3.20273484 1.42153301,3.33002511 1.42153301,3.45797069 C1.42153301,3.55724728 1.40965274,3.65799828 1.38610245,3.76038749 C1.33374512,3.99236051 1.23565399,4.16109795 1.09193417,4.26676362 C1.01076979,4.32590363 0.928659207,4.35555556 0.845497265,4.35555556 C0.78189047,4.35555556 0.717652864,4.3378627 0.652994717,4.30264081 C0.582133593,4.26266806 0.510746793,4.19386249 0.438939453,4.09638796 L0.609889285,3.94272222 C0.646791739,3.98269497 0.681696626,4.01234689 0.714603943,4.03151415 C0.756658022,4.0555961 0.799342912,4.06755515 0.842448344,4.06755515 C0.897854594,4.06755515 0.953260842,4.04674967 1.00877223,4.00513868 C1.10623256,3.93305668 1.17246773,3.8187084 1.20737262,3.66193002 C1.22387885,3.59148624 1.23207939,3.52202539 1.23207939,3.45321982 C1.23207939,3.36672142 1.2192529,3.28202506 1.19359991,3.1988031 C1.14734042,3.04841381 1.0750074,2.94602459 0.976390587,2.89163543 C0.932233803,2.8677173 0.888602696,2.85559442 0.845497265,2.85559442 C0.789039663,2.85559442 0.733633414,2.8755808 0.679173381,2.91571737 L0.523573287,2.7165089 Z" id="Fill-12"></path>
                </g>
            </g>
        </g>
    </g>
</svg>