<?xml version="1.0" encoding="UTF-8"?>
<svg width="33px" height="32px" viewBox="0 0 33 32" version="1.1" xmlns="http://www.w3.org/2000/svg" xmlns:xlink="http://www.w3.org/1999/xlink">
    <!-- Generator: Sketch 51.2 (57519) - http://www.bohemiancoding.com/sketch -->
    <title>Group</title>
    <desc>Created with Sketch.</desc>
    <defs></defs>
    <g id="Page-1" stroke="none" stroke-width="1" fill="none" fill-rule="evenodd">
        <g id="Group" transform="translate(1.000000, 0.000000)" fill-rule="nonzero">
            <polygon id="Fill-1" fill="#EA4335" points="21.2307692 0 24.5571021 7.19304661 32 8.35648345 26.6153846 13.9514383 27.8864972 21.8536585 21.2307692 18.1182419 14.5750415 21.8536585 15.8461538 13.9514383 10.4615385 8.35648345 17.901374 7.19304661"></polygon>
            <path d="M1.25559077,11.2893267 C2.34540862,9.86093635 3.58208985,9.14634146 4.96752615,9.14634146 C5.52724738,9.14634146 6.05671385,9.24785553 6.55529415,9.45088359 C7.26944308,9.75542564 7.91866892,10.2709891 8.50360308,10.9967745 C9.01479015,11.6442262 9.38667692,12.3628176 9.62052431,13.1509502 C9.83041969,13.7832148 9.93505231,14.5129968 9.93505231,15.3402962 L9.93505231,21.8859532 L8.67883138,21.8859532 L8.67883138,15.1180844 C8.58680492,13.9942361 8.21743938,13.0222592 7.57136492,12.2029531 C6.85091262,11.29732 5.98296677,10.8441037 4.96752615,10.8441037 C3.95775877,10.8441037 3.09611569,11.29732 2.38196677,12.2029531 C1.68042462,13.0925996 1.30790708,14.1501041 1.26504554,15.3754665 L1.26504554,21.8859532 L1.13686838e-13,21.8859532 L1.13686838e-13,9.28702236 L1.25559077,9.28702236 L1.25559077,11.2893267 Z" id="Fill-11" stroke="#417505" stroke-width="0.5" fill="#417505"></path>
            <g id="Group-5" transform="translate(11.692308, 9.146341)" fill="#417505" stroke="#417505" stroke-width="0.5">
                <path d="M4.88497412,1.52886015 C3.87345882,1.52886015 3.00719007,1.98669623 2.28551656,2.90154642 C1.56319172,3.8163966 1.20235497,4.91207972 1.20235497,6.18859575 C1.20235497,7.46511177 1.56319172,8.55915099 2.28551656,9.46989128 C3.00719007,10.3814536 3.87345882,10.8360018 4.88497412,10.8360018 C5.9088647,10.8360018 6.78229809,10.3814536 7.50397157,9.46989128 C8.22629643,8.55915099 8.58713317,7.46511177 8.58713317,6.18859575 C8.58713317,4.91207972 8.22629643,3.8163966 7.50397157,2.90154642 C6.78229809,1.98669623 5.9088647,1.52886015 4.88497412,1.52886015 Z M3.24362282,13.6298704 L3.9405458,12.2571842 C3.00523608,12.0484044 2.17218516,11.4779587 1.4407417,10.5474911 C0.480030124,9.34330825 0,7.89006915 0,6.18859575 C0,4.47890267 0.478727464,3.01990978 1.43618239,1.81243906 C2.39363732,0.604146351 3.54258324,0 4.88497412,0 C6.2462536,0 7.40041015,0.605790286 8.34809514,1.81819283 C8.43732732,1.92258274 8.51027625,2.02286281 8.56759329,2.11903305 L8.94015397,1.49269356 L9.84615385,2.57604716 L9.32183329,3.5278859 C9.62665569,4.33012649 9.77971822,5.21702978 9.77971822,6.18859575 C9.77971822,7.89006915 9.30229342,9.34330825 8.34809514,10.5474911 C7.50853089,11.6070076 6.5230688,12.2004684 5.39040612,12.3295173 L5.11424225,12.8711941 L5.20933641,12.8711941 C5.60990428,12.8711941 6.01698546,12.9632546 6.43057994,13.1481973 C7.35286308,13.5575373 8.02698948,14.3203234 8.45361058,15.4357338 C8.68874062,16.069471 8.80663132,16.7081399 8.80663132,17.3500969 C8.80663132,17.8482093 8.73303108,18.3537196 8.58713317,18.8674494 C8.26277089,20.0313559 7.65508012,20.8779828 6.76471218,21.408152 C6.26188548,21.7048823 5.75319686,21.8536585 5.23799492,21.8536585 C4.84394034,21.8536585 4.44597778,21.764886 4.04540991,21.588163 C3.60641356,21.3876028 3.16416057,21.0423763 2.71930226,20.5533054 L3.77836465,19.7822996 C4.00698144,19.9828598 4.22322297,20.131636 4.42708922,20.2278062 C4.68762117,20.3486355 4.9520611,20.4086391 5.21910636,20.4086391 C5.56235721,20.4086391 5.90560805,20.3042492 6.24951022,20.0954693 C6.85329305,19.7338036 7.26363083,19.16007 7.47987237,18.3734468 C7.5821312,18.0200006 7.63293489,17.6714863 7.63293489,17.3262597 C7.63293489,16.8922608 7.55347268,16.4673034 7.39454818,16.0497438 C7.10796302,15.2951773 6.65984806,14.7814474 6.04890063,14.5085541 C5.77534207,14.3885467 5.50504017,14.3277211 5.23799492,14.3277211 C4.88823078,14.3277211 4.54497993,14.4280012 4.20759105,14.6293833 L3.24362282,13.6298704 Z" id="Fill-12"></path>
            </g>
        </g>
    </g>
</svg>