<?xml version="1.0" encoding="UTF-8"?>
<svg width="244px" height="96px" viewBox="0 0 244 96" version="1.1" xmlns="http://www.w3.org/2000/svg" xmlns:xlink="http://www.w3.org/1999/xlink">
    <!-- Generator: Sketch 51.3 (57544) - http://www.bohemiancoding.com/sketch -->
    <title>ratingNgLogo</title>
    <desc>Created with Sketch.</desc>
    <defs>
        <polygon id="path-1" points="0.96714 0.435102564 22.21039 0.435102564 22.21039 68.3467923 0.96714 68.3467923"></polygon>
        <polygon id="path-3" points="0 96 196.838363 96 196.838363 0.435102564 0 0.435102564"></polygon>
    </defs>
    <g id="Page-1" stroke="none" stroke-width="1" fill="none" fill-rule="evenodd">
        <g id="Home" transform="translate(-599.000000, -162.000000)">
            <g id="Hero-Area" transform="translate(6.000000, -9.000000)">
                <g id="ratingNgLogo" transform="translate(593.000000, 171.000000)">
                    <polygon id="Fill-1" fill="#EA4335" points="99.5 21 102.125427 26.5954838 108 27.5005234 103.75 31.8528488 104.753271 38 99.5 35.0942127 94.2467292 38 95.25 31.8528488 91 27.5005234 96.8721559 26.5954838"></polygon>
                    <g id="Group-11">
                        <g id="Group-15">
                            <path d="M4.9555975,45.8676641 L4.99291,68.3467923 L0.0004975,68.3467923 L0.0004975,29.1438692 L4.9555975,29.1438692 L4.9555975,35.4488692 C5.1993725,35.1802538 5.4530975,34.9141256 5.7217475,34.6455103 C9.3634475,31.0017923 13.773785,29.1811769 18.947785,29.1811769 L19.6766225,29.1811769 L19.6766225,33.8073308 C19.4328475,33.7849462 19.19156,33.7725103 18.947785,33.7725103 C15.0846975,33.7725103 11.76886,35.1429462 9.0002725,37.8887923 C6.7167475,40.1720231 5.3685225,42.8308179 4.9555975,45.8676641" id="Fill-2" fill="#000000"></path>
                            <path d="M57.0983237,52.1706744 L57.0983237,44.9205462 C56.4664987,42.2741872 55.1182738,39.916341 53.0536487,37.8519821 C50.1134237,34.8897513 46.5438612,33.4073923 42.3399862,33.4073923 C38.1858612,33.4073923 34.6287362,34.8847769 31.6636362,37.8345718 C28.7010237,40.7868538 27.2184737,44.3484949 27.2184737,48.5269564 C27.2184737,52.7054179 28.7010237,56.2695462 31.6636362,59.2218282 C34.6287362,62.1716231 38.1858612,63.6465205 42.3399862,63.6465205 C46.5438612,63.6465205 50.1134237,62.1765974 53.0536487,59.2392385 C55.1182738,57.1748795 56.4664987,54.8170333 57.0983237,52.1706744 Z M57.0983238,35.3026231 L57.0983238,29.2911103 L62.0534238,29.2911103 L62.0534238,68.3472897 L57.0983238,68.3472897 L57.0983238,61.7537769 L56.3694863,62.5546487 C52.4840113,66.4172385 47.8075112,68.3472897 42.3399862,68.3472897 C36.8749487,68.3472897 32.2059112,66.4122641 28.3328737,62.5372385 C24.4573487,58.6622128 22.5195862,53.9912897 22.5195862,48.5269564 C22.5195862,43.0626231 24.4573487,38.3941872 28.3328737,34.5191615 C32.2059112,30.6466231 36.8749487,28.7066231 42.3399862,28.7066231 C47.8075112,28.7066231 52.4840113,30.6391615 56.3694863,34.5017513 L57.0983238,35.3026231 Z" id="Fill-4" fill="#000000"></path>
                            <g id="Group-8" transform="translate(69.650000, 0.000000)">
                                <mask id="mask-2" fill="white">
                                    <use xlink:href="#path-1"></use>
                                </mask>
                                <g id="Clip-7"></g>
                                <path d="M10.8052025,62.0442795 C11.8499525,62.8700231 13.0041525,63.2828949 14.2678025,63.2828949 C14.484215,63.2828949 14.7155525,63.270459 14.9593275,63.2455872 C16.27024,63.1013308 17.3771775,62.5790231 18.275165,61.6811513 L22.21039,64.7403821 C21.4318025,65.8322538 20.3024775,66.7201769 18.822415,67.3991769 C17.80254,67.8617923 16.6956025,68.1527923 15.5065775,68.2746641 C15.0439025,68.3219205 14.593665,68.3467923 14.1583525,68.3467923 C11.75294,68.3467923 9.578865,67.5707923 7.6361275,66.0163051 C5.3277275,64.1683308 4.1486525,61.4374077 4.10139,57.8185615 L4.10139,46.4496641 L0.96714,46.4496641 L0.96714,41.5325103 L4.10139,41.5325103 L4.10139,0.43435641 L9.1286275,0.43435641 L9.1286275,41.5325103 L15.688165,41.5325103 L15.688165,46.4496641 L9.1286275,46.4496641 L9.1286275,57.5623821 C9.1286275,59.5794846 9.688315,61.0717923 10.8052025,62.0442795" id="Fill-6" fill="#000000" mask="url(#mask-2)"></path>
                            </g>
                            <mask id="mask-4" fill="white">
                                <use xlink:href="#path-3"></use>
                            </mask>
                            <g id="Clip-10"></g>
                            <polygon id="Fill-9" fill="#000000" mask="url(#mask-4)" points="97.3632375 68.3475385 102.318337 68.3475385 102.318337 41.5332564 97.3632375 41.5332564"></polygon>
                            <path d="M116.965981,35.375 C121.266869,30.9304103 126.147344,28.7068718 131.614869,28.7068718 C133.823769,28.7068718 135.913269,29.0227436 137.880881,29.6544872 C140.699219,30.6021026 143.261344,32.2063333 145.569744,34.4646923 C147.587106,36.4793077 149.054731,38.7152821 149.977594,41.167641 C150.805931,43.135 151.218856,45.4057949 151.218856,47.9800256 L151.218856,68.3475385 L146.261269,68.3475385 L146.261269,47.2885897 C145.898094,43.7916154 144.440419,40.7672051 141.890731,38.2178462 C139.047519,35.3998718 135.622231,33.989641 131.614869,33.989641 C127.629894,33.989641 124.229481,35.3998718 121.411144,38.2178462 C118.642556,40.9860769 117.172444,44.2766154 117.003294,48.0894615 L117.003294,68.3475385 L112.010881,68.3475385 L112.010881,29.1446154 L116.965981,29.1446154 L116.965981,35.375 Z" id="Fill-11" fill="#000000" mask="url(#mask-4)"></path>
                            <path d="M177.890329,34.5005077 C174.027241,34.5005077 170.718866,35.8858667 167.962716,38.6540974 C165.204079,41.4223282 163.826004,44.7377385 163.826004,48.6003282 C163.826004,52.4629179 165.204079,55.7733538 167.962716,58.5291487 C170.718866,61.2874308 174.027241,62.662841 177.890329,62.662841 C181.800679,62.662841 185.136416,61.2874308 187.892566,58.5291487 C190.651204,55.7733538 192.029279,52.4629179 192.029279,48.6003282 C192.029279,44.7377385 190.651204,41.4223282 187.892566,38.6540974 C185.136416,35.8858667 181.800679,34.5005077 177.890329,34.5005077 Z M171.621829,71.1167641 L174.283454,66.9631744 C170.711404,66.3314308 167.529891,64.6053282 164.736429,61.789841 C161.067366,58.1461231 159.234079,53.7487897 159.234079,48.6003282 C159.234079,43.4269949 161.062391,39.0122513 164.719016,35.3585846 C168.375641,31.7024308 172.763591,29.8743538 177.890329,29.8743538 C183.089204,29.8743538 187.497054,31.7074051 191.116366,35.3759949 C191.457154,35.6918667 191.735754,35.9953026 191.954654,36.2863026 L193.377504,34.3910718 L196.837616,37.6691744 L194.835179,40.5493282 C195.999329,42.9768154 196.583891,45.6604821 196.583891,48.6003282 C196.583891,53.7487897 194.760554,58.1461231 191.116366,61.789841 C187.909979,64.9958154 184.146391,66.791559 179.820629,67.1820462 L178.765929,68.8210974 L179.129104,68.8210974 C180.658916,68.8210974 182.213604,69.0996615 183.793166,69.6592769 C187.315466,70.8978923 189.890029,73.2059949 191.519341,76.5810974 C192.417329,78.4987128 192.867566,80.4312513 192.867566,82.3737385 C192.867566,83.8809692 192.586479,85.4105846 192.029279,86.9650718 C190.790504,90.4869179 188.469666,93.0487128 185.069254,94.6529436 C183.148904,95.5508154 181.206166,96.0009949 179.238554,96.0009949 C177.733616,96.0009949 176.213754,95.7323795 174.683941,95.1976359 C173.007366,94.5907641 171.318354,93.5461487 169.619391,92.0662769 L173.664066,89.7333026 C174.537179,90.3401744 175.363029,90.7903538 176.141616,91.0813538 C177.136616,91.4469692 178.146541,91.6285333 179.166416,91.6285333 C180.477329,91.6285333 181.788241,91.3126615 183.101641,90.6809179 C185.407554,89.586559 186.974679,87.8505077 187.800529,85.4702769 C188.191066,84.4007897 188.385091,83.3462256 188.385091,82.3016103 C188.385091,80.9883795 188.081616,79.7025077 187.474666,78.4390205 C186.380166,76.1557897 184.668766,74.6013026 182.335491,73.775559 C181.290741,73.4124308 180.258429,73.2283795 179.238554,73.2283795 C177.902766,73.2283795 176.591854,73.5318154 175.303329,74.1411744 L171.621829,71.1167641 Z" id="Fill-12" fill="#EA4335" mask="url(#mask-4)"></path>
                            <path d="M171.622824,71.1160179 L175.301836,74.1404282 C176.072961,73.7748128 176.856524,73.555941 177.642574,73.4116846 L177.642574,62.6421974 C173.888936,62.5800179 170.657674,61.2245051 167.961224,58.5284026 C165.205074,55.7726077 163.824511,52.4621718 163.824511,48.5995821 C163.824511,44.7394795 165.205074,41.4240692 167.961224,38.6533513 C170.657674,35.9448128 173.888936,34.5843256 177.642574,34.5221462 L177.642574,29.8860436 C172.625286,29.9432487 168.314449,31.7638641 164.720011,35.3578385 C161.063386,39.0139923 159.235074,43.4262487 159.235074,48.5995821 C159.235074,53.7505308 161.068361,58.1453769 164.734936,61.7890949 C167.528399,64.6070692 170.712399,66.3306846 174.281961,66.9624282 L171.622824,71.1160179 Z" id="Fill-13" fill="#000000" mask="url(#mask-4)"></path>
                            <path d="M177.642574,91.4919872 C177.140099,91.3999615 176.640111,91.2631667 176.140124,91.0816026 C175.364024,90.7906026 174.538174,90.3404231 173.662574,89.7335513 L169.617899,92.0640385 C171.319349,93.5463974 173.008361,94.5910128 174.684936,95.1978846 C175.674961,95.5460897 176.660011,95.7376026 177.642574,95.8594744 L177.642574,91.4919872 Z" id="Fill-14" fill="#000000" mask="url(#mask-4)"></path>
                        </g>
                        <path d="M210.040335,26.7456998 C211.811289,24.9155747 213.820896,24 216.07223,24 C216.981777,24 217.84216,24.1300649 218.652353,24.3901946 C219.812845,24.7803891 220.867837,25.4409548 221.818355,26.3708673 C222.649034,27.2004148 223.25335,28.1211101 223.633352,29.130905 C223.974432,29.940994 224.14446,30.8760271 224.14446,31.9360045 L224.14446,40.3226275 L222.103101,40.3226275 L222.103101,31.6512956 C221.953558,30.211365 221.353339,28.9660196 220.303468,27.9162836 C219.132733,26.7559412 217.722321,26.1752579 216.07223,26.1752579 C214.431358,26.1752579 213.031188,26.7559412 211.870696,27.9162836 C210.73069,29.0561433 210.125349,30.4110709 210.055699,31.9810664 L210.055699,40.3226275 L208,40.3226275 L208,24.1802474 L210.040335,24.1802474 L210.040335,26.7456998 Z" id="Fill-11" stroke="#417505" stroke-width="0.5" fill="#417505"></path>
                        <g id="Group-5" transform="translate(227.000000, 24.000000)" fill="#417505" stroke="#417505" stroke-width="0.5">
                            <path d="M7.93808295,1.95885207 C6.29437058,1.95885207 4.88668387,2.54545455 3.71396441,3.71760635 C2.54018654,4.88975815 1.95382682,6.29360214 1.95382682,7.9291383 C1.95382682,9.56467446 2.54018654,10.9664122 3.71396441,12.1332982 C4.88668387,13.3012374 6.29437058,13.8836273 7.93808295,13.8836273 C9.60190514,13.8836273 11.0212344,13.3012374 12.1939538,12.1332982 C13.3677317,10.9664122 13.9540914,9.56467446 13.9540914,7.9291383 C13.9540914,6.29360214 13.3677317,4.88975815 12.1939538,3.71760635 C11.0212344,2.54545455 9.60190514,1.95885207 7.93808295,1.95885207 Z M5.27088708,17.4632715 L6.40338692,15.7045172 C4.88350863,15.4370181 3.52980089,14.7061346 2.34120527,13.513973 C0.780048952,11.9711137 0,10.1091511 0,7.9291383 C0,5.73859405 0.777932129,3.86925941 2.33379639,2.32218754 C3.88966065,0.774062512 5.75669776,0 7.93808295,0 C10.1501621,0 12.0256665,0.776168804 13.5656546,2.32955956 C13.7106569,2.46330914 13.8291989,2.59179298 13.9223391,2.7150111 L14.5277502,1.91251363 L16,3.30056042 L15.1479791,4.52010381 C15.6433155,5.54797457 15.8920421,6.6843194 15.8920421,7.9291383 C15.8920421,10.1091511 15.1162268,11.9711137 13.5656546,13.513973 C12.2013627,14.8714785 10.5999868,15.6318502 8.75940994,15.7971941 L8.31064365,16.4912175 L8.46517166,16.4912175 C9.11609446,16.4912175 9.77760138,16.6091699 10.4496924,16.8461278 C11.9484025,17.3705947 13.0438579,18.3479144 13.7371172,19.7770339 C14.1192035,20.5890097 14.3107759,21.4073043 14.3107759,22.2298116 C14.3107759,22.8680182 14.1911755,23.5157032 13.9540914,24.1739196 C13.4270027,25.6651747 12.4395052,26.7499154 10.9926573,27.4291947 C10.1755639,27.8093805 9.3489449,28 8.51174175,28 C7.87140306,28 7.2247139,27.8862602 6.5737911,27.6598338 C5.86042204,27.4028661 5.14176093,26.9605446 4.41886618,26.3339226 L6.13984256,25.3460714 C6.51134484,25.6030391 6.86273732,25.7936586 7.19401998,25.9168767 C7.6173844,26.0716892 8.04709929,26.1485688 8.48104783,26.1485688 C9.03883046,26.1485688 9.59661308,26.0148193 10.1554541,25.7473201 C11.1366012,25.2839358 11.8034001,24.5488397 12.1547926,23.5409787 C12.3209632,23.0881258 12.4035192,22.6415918 12.4035192,22.1992703 C12.4035192,21.6432091 12.2743931,21.0987325 12.0161408,20.5637342 C11.5504399,19.5969459 10.8222531,18.9387295 9.82946352,18.5890849 C9.38493087,18.4353255 8.94569028,18.3573927 8.51174175,18.3573927 C7.94337501,18.3573927 7.38559238,18.4858766 6.83733545,18.7438974 L5.27088708,17.4632715 Z" id="Fill-12"></path>
                        </g>
                    </g>
                </g>
            </g>
        </g>
    </g>
</svg>